<mxfile host="app.diagrams.net" modified="2023-09-29T03:33:39.800Z" agent="Mozilla/5.0 (Windows NT 10.0; Win64; x64) AppleWebKit/537.36 (KHTML, like Gecko) Chrome/117.0.0.0 Safari/537.36" version="21.7.2" etag="9swzpdVhG0f6kTpRLXJz" type="github">
  <diagram name="Page-1" id="aAU_abqiuEvoDAhgeyEH">
    <mxGraphModel>
      <root>
        <mxCell id="0" />
        <mxCell id="1" parent="0" />
      </root>
    </mxGraphModel>
  </diagram>
</mxfile>
